<svg aria-hidden="true" style="position: absolute; width: 0; height: 0; overflow: hidden;" version="1.1" xmlns="http://www.w3.org/2000/svg" xmlns:xlink="http://www.w3.org/1999/xlink">
<defs>
<symbol id="icon-trash-can" viewBox="0 0 32 32">
<title>trash-can</title>
<path d="M21 6h4v1h-17v-1h4v-1c0-1.112 0.894-2 1.997-2h5.005c1.102 0 1.997 0.895 1.997 2v1zM8 8h17v18.999c0 1.658-1.343 3.001-3 3.001h-11c-1.666 0-3-1.344-3-3.001v-18.999zM12 11v16h1v-16h-1zM16 11v16h1v-16h-1zM20 11v16h1v-16h-1zM14.003 4c-0.554 0-1.003 0.444-1.003 1v1h7v-1c0-0.552-0.438-1-1.003-1h-4.994z"></path>
</symbol>
<symbol id="icon-document-edit" viewBox="0 0 32 32">
<title>document-edit</title>
<path d="M26.443 12.15l-11.286 11.3-2.606-2.606 11.292-11.294 2.6 2.6zM27.15 11.443l-2.599-2.599 1.727-1.728c0.391-0.391 1.024-0.388 1.417 0.003l1.18 1.177c0.392 0.391 0.395 1.025 0.005 1.416l-1.729 1.731zM11.904 21.611l2.495 2.495-3.135 0.617 0.64-3.113zM22 10v0l-6-7h-10.997c-1.106 0-2.003 0.898-2.003 2.007v22.985c0 1.109 0.891 2.007 1.997 2.007h15.005c1.103 0 1.997-0.898 1.997-1.991v-10.009l7.58-7.58c0.784-0.784 0.786-2.054 0.010-2.83l-1.18-1.179c-0.779-0.779-2.037-0.783-2.83 0.010l-3.58 3.58zM21 19v9.007c0 0.548-0.448 0.993-1 0.993h-15c-0.545 0-1-0.446-1-0.995v-23.009c0-0.54 0.446-0.995 0.996-0.995h10.004v4.994c0 1.119 0.895 2.006 1.998 2.006h4.002l-10 10-1 5 5-1 6-6zM16 4.5l4.7 5.5h-3.703c-0.546 0-0.997-0.452-0.997-1.009v-4.491z"></path>
</symbol>
<symbol id="icon-user" viewBox="0 0 24 32">
<title>user</title>
<path d="M12 16c-6.625 0-12 5.375-12 12 0 2.211 1.789 4 4 4h16c2.211 0 4-1.789 4-4 0-6.625-5.375-12-12-12zM6 6c0-3.314 2.686-6 6-6s6 2.686 6 6c0 3.314-2.686 6-6 6s-6-2.686-6-6z"></path>
</symbol>
<symbol id="icon-pencil" viewBox="0 0 32 32">
<title>pencil</title>
<path d="M27 0c2.761 0 5 2.239 5 5 0 1.126-0.372 2.164-1 3l-2 2-7-7 2-2c0.836-0.628 1.874-1 3-1zM2 23l-2 9 9-2 18.5-18.5-7-7-18.5 18.5zM22.362 11.362l-14 14-1.724-1.724 14-14 1.724 1.724z"></path>
</symbol>
<symbol id="icon-image" viewBox="0 0 18 18">
<title>image</title>
<path d="M17 1h-16c-0.552 0-1 0.448-1 1v14c0 0.552 0.448 1 1 1h16c0.552 0 1-0.448 1-1v-14c0-0.552-0.448-1-1-1zM16 14.5c0 0.276-0.224 0.5-0.5 0.5h-8.098l5.602-5.602 2.996 2.996v2.106zM16 9.606l-2.17-2.17c-0.035-0.051-0.075-0.1-0.12-0.145-0.196-0.196-0.455-0.293-0.712-0.29-0.256-0.003-0.513 0.093-0.709 0.289-0.040 0.040-0.076 0.084-0.108 0.129l-7.582 7.582h-2.098c-0.276 0-0.5-0.224-0.5-0.5v-11c0-0.276 0.224-0.5 0.5-0.5h12.999c0.276 0 0.5 0.224 0.5 0.5v6.106z"></path>
<path d="M6 5c-1.105 0-2 0.895-2 2s0.895 2 2 2c1.104 0 2-0.895 2-2s-0.896-2-2-2z"></path>
</symbol>
<symbol id="icon-new-message" viewBox="0 0 20 20">
<title>new-message</title>
<path d="M18.174 1.826c-1.102-1.102-2.082-0.777-2.082-0.777l-8.639 8.632-1.453 4.319 4.317-1.454 8.634-8.638c0 0 0.324-0.98-0.777-2.082zM10.605 11.605l-0.471 0.47-1.473 0.5c-0.104-0.24-0.234-0.477-0.498-0.74s-0.5-0.394-0.74-0.498l0.5-1.473 0.471-0.47c0 0 0.776-0.089 1.537 0.673 0.762 0.761 0.674 1.538 0.674 1.538zM16 17h-13v-13h5l2-2h-7c-1.1 0-2 0.9-2 2v13c0 1.1 0.9 2 2 2h13c1.1 0 2-0.9 2-2v-7l-2 2v5z"></path>
</symbol>
</defs>
</svg>
